<?xml version="1.0" encoding="utf-8"?><!-- Uploaded to: SVG Repo, www.svgrepo.com, Generator: SVG Repo Mixer Tools -->
<svg width="800px" height="800px" viewBox="-0.5 0 25 25" fill="none" xmlns="http://www.w3.org/2000/svg">
<path d="M2.5 12.5C2.5 8.20002 6.01001 4.70001 10.34 4.70001" stroke="#0F0F0F" stroke-miterlimit="10" stroke-linecap="round"/>
<path d="M2.5 12.5V19.8C2.5 20.08 2.72 20.3 3 20.3H9.84001C10.12 20.3 10.34 20.08 10.34 19.8V13C10.34 12.72 10.12 12.5 9.84001 12.5H4.5" stroke="#0F0F0F" stroke-miterlimit="10" stroke-linecap="round"/>
<path d="M13.66 12.5C13.66 8.20002 17.17 4.70001 21.5 4.70001" stroke="#0F0F0F" stroke-miterlimit="10" stroke-linecap="round"/>
<path d="M13.66 12.5V19.8C13.66 20.08 13.88 20.3 14.16 20.3H21C21.28 20.3 21.5 20.08 21.5 19.8V13C21.5 12.72 21.28 12.5 21 12.5H15.66" stroke="#0F0F0F" stroke-miterlimit="10" stroke-linecap="round"/>
</svg>